<?xml version="1.0" encoding="iso-8859-1"?>
<!-- Generator: Adobe Illustrator 19.0.0, SVG Export Plug-In . SVG Version: 6.00 Build 0)  -->
<svg version="1.1" id="Layer_1" xmlns="http://www.w3.org/2000/svg" xmlns:xlink="http://www.w3.org/1999/xlink" x="0px" y="0px"
	 viewBox="0 0 480 480" style="enable-background:new 0 0 480 480;" xml:space="preserve">
<g>
	<g>
		<path d="M240.008,0c-0.192,0-0.384,0-0.576,0c-23.496,0-45.528,10.008-62.04,26.6C160.872,43.208,151.848,65.528,152,88.88
			c0.312,47.976,39.728,87.12,87.992,87.12c0.192,0,0.384,0,0.576,0c23.496-0.152,45.52-9.368,62.032-25.96
			c16.528-16.608,25.544-39.248,25.4-62.6C327.696,39.464,288.272,0,240.008,0z M291.256,138.752
			c-13.504,13.584-31.544,21.128-50.792,21.248c-39.84-0.056-72.208-31.552-72.464-70.904c-0.12-19.048,7.24-37.648,20.736-51.2
			C202.256,24.312,220.296,16,239.536,16c0.16,0,0.312,0,0.472,0c39.496,0,71.744,32.352,71.992,71.544
			C312.128,106.592,304.76,125.192,291.256,138.752z"/>
	</g>
</g>
<g>
	<g>
		<path d="M247.944,79.896L240.152,80c-0.016,0-0.032,0-0.048,0c-4.384,0-7.976-3.608-8-8c-0.024-4.328,3.424-7.88,7.72-8.032
			c0.096,0,0.168,0.024,0.264,0.024c0.016,0,0.032,0,0.048,0c0.176,0,0.328-0.096,0.504-0.104l23.216-0.152
			c4.416-0.032,7.976-3.504,7.944-7.928c-0.032-4.4-3.6-7.816-8-7.816c-0.016,0-0.032,0-0.056,0l-15.712-0.024L248,41.608
			c-0.024-4.392-3.608-9.608-8-9.608c-0.016,0-0.032,0-0.048,0c-4.424,0-7.976,5.232-7.952,9.656l0.04,6.944
			c-9.312,3.352-16,12.656-15.936,23.104C216.184,84.888,226.944,96,240.112,96c0.048,0,0.104,0,0.152,0h7.792
			c0.024,0,0.04,0,0.056,0c2.12,0,4.112,0.744,5.624,2.224c1.512,1.504,2.36,3.472,2.376,5.6c0.032,4.416-3.536,8.008-7.952,8.032
			L224.368,112c-4.424,0.032-7.976,3.624-7.952,8.048c0.024,4.4,3.608,7.944,8,7.944c0.016,0,0.032,0,0.048,0l7.592-0.048
			l0.032,6.504c0.024,4.4,3.608,9.544,8,9.544c0.016,0,0.032,0,0.048,0c4.416,0,7.976-5.16,7.944-9.576L248.048,128h0.2
			c13.232,0,23.928-10.968,23.848-24.2S261.576,79.8,247.944,79.896z"/>
	</g>
</g>
<g>
	<g>
		<path d="M25.376,168C11.384,168,0,179.928,0,194.6c0,14.672,11.384,26.6,25.376,26.6c14,0,25.384-11.928,25.384-26.6
			S39.376,168,25.376,168z M25.376,205.2c-5.168,0-9.376-4.752-9.376-10.6c0-5.848,4.208-10.6,9.376-10.6
			c5.168,0,9.384,4.76,9.384,10.6C34.76,200.44,30.552,205.2,25.376,205.2z"/>
	</g>
</g>
<g>
	<g>
		<path d="M193.336,416.416c-4.208-1.408-8.728,0.864-10.12,5.056l-12.352,37.064c-1.096,3.272-4.144,5.464-7.592,5.464h-23.976
			c-2.48,0-4.776-1.128-6.304-3.08c-1.528-1.952-2.056-4.456-1.456-6.864l11.024-44.12c1.072-4.28-1.536-8.624-5.824-9.696
			c-4.264-1.08-8.624,1.52-9.704,5.824l-11.024,44.112c-1.808,7.224-0.216,14.736,4.36,20.592c4.584,5.864,11.48,9.232,18.928,9.232
			h23.976c10.344,0,19.496-6.592,22.768-16.408l12.352-37.064C199.792,422.336,197.52,417.808,193.336,416.416z"/>
	</g>
</g>
<g>
	<g>
		<path d="M344.712,447.288L333.68,404.12c-1.096-4.272-5.408-6.872-9.736-5.768c-4.272,1.096-6.856,5.456-5.768,9.736
			l11.024,43.128c0.736,2.96-0.232,6.832-2.432,9.648c-0.912,1.168-2.824,3.136-5.328,3.136h-23.976c-2.176,0-6.048-3.712-7.6-8.384
			l-12.36-36.112c-1.44-4.176-5.976-6.384-10.168-4.976c-4.176,1.432-6.408,5.984-4.976,10.168l12.336,36.04
			C277.88,470.312,286.72,480,297.464,480h23.976c6.792,0,13.336-3.392,17.944-9.296
			C344.608,464.016,346.656,455.056,344.712,447.288z"/>
	</g>
</g>
<g>
	<g>
		<path d="M239.624,421.704c-7.688,0.36-15.632,0.392-23.28,0.064c-4.24-0.32-8.152,3.232-8.336,7.64
			c-0.192,4.416,3.232,8.152,7.648,8.344c3.704,0.168,7.456,0.248,11.264,0.248c4.536,0,9.024-0.104,13.464-0.312
			c4.416-0.208,7.824-3.952,7.616-8.368C247.784,424.896,243.832,421.328,239.624,421.704z"/>
	</g>
</g>
<g>
	<g>
		<path d="M273.416,205.824c-15.256-2.752-31.408-4.144-48-4.144c-19.696,0-38.336,1.696-55.48,5.04l-32.256-27.208
			c-9.608-8.128-23.56-7.528-32.448,1.368l-8.776,8.776c-4.528,4.528-7.024,10.552-7.024,16.968c0,0.4,0.024,0.792,0.088,1.176
			l5.472,36.736C88.464,249.92,75.656,262.072,67.6,280h-2.168C52.192,280,40,290.768,40,304v34.952
			c0,7.56,4.336,14.768,10.4,19.264c0.288,0.208,0.936,0.408,1.248,0.576l38.632,21.32c4.616,6.36,10.112,12.344,16.168,17.816
			c1.528,1.384,3.488,2.064,5.4,2.064c2.184,0,4.384-0.888,5.968-2.64c2.968-3.28,2.728-8.344-0.552-11.296
			c-5.656-5.104-10.624-10.696-14.784-16.64c-0.696-1-1.616-1.824-2.672-2.416L59.6,345.104c-1.816-1.512-3.6-3.776-3.6-6.152V304
			c0-4.416,5.016-8,9.432-8h7.528c3.344,0,6.336-2.08,7.504-5.216c8.416-22.664,27.48-36.064,27.656-36.176
			c2.52-1.736,3.84-4.752,3.392-7.784l-6.064-40.688c0.12-1.952,0.936-3.776,2.328-5.168l8.784-8.776
			c2.96-2.968,7.616-3.168,10.816-0.456l33.36,28.152c1.784,2.656,5.056,4.072,8.312,3.352c17.192-3.688,36.16-5.552,56.376-5.552
			c15.64,0,30.832,1.304,45.168,3.888c4.32,0.8,8.504-2.112,9.288-6.464C280.664,210.768,277.768,206.608,273.416,205.824z"/>
	</g>
</g>
<g>
	<g>
		<path d="M432,280c-4.424,0-8,3.576-8,8v16c0,13.232-10.768,24-24,24h-7.32c0.208-2.704,0.424-5.392,0.424-8.16
			c0-4.424-3.576-8-8-8s-8,3.576-8,8c0,26.224-10.456,48.456-31.056,66.08c-3.36,2.864-3.76,7.92-0.88,11.272
			c1.584,1.856,3.824,2.808,6.08,2.808c1.84,0,3.696-0.632,5.192-1.92c17.456-14.92,28.84-33.344,33.792-54.08H400
			c22.056,0,40-17.944,40-40v-16C440,283.576,436.424,280,432,280z"/>
	</g>
</g>
<g>
	<g>
		<path d="M249.432,232h-40c-4.416,0-8,3.576-8,8s3.584,8,8,8h40c4.424,0,8-3.576,8-8S253.848,232,249.432,232z"/>
	</g>
</g>
<g>
	<g>
		<path d="M355.816,178.872c-33.16,0-60.128,26.968-60.128,60.128c0,33.16,26.968,60.128,60.128,60.128
			c33.16,0,60.136-26.968,60.136-60.128C415.952,205.84,388.976,178.872,355.816,178.872z M355.808,283.128
			c-24.328,0-44.128-19.8-44.128-44.128s19.8-44.128,44.128-44.128c24.344,0,44.136,19.8,44.136,44.128
			S380.144,283.128,355.808,283.128z"/>
	</g>
</g>
<g>
	<g>
		<path d="M380.032,217.168c-3.776-2.296-8.696-1.096-10.992,2.68l-14.968,24.632l-11.192-10.352c-3.248-3-8.312-2.816-11.312,0.44
			c-3,3.24-2.808,8.304,0.44,11.312l18.368,17c1.496,1.376,3.44,2.128,5.44,2.128c0.368,0,0.744-0.024,1.112-0.08
			c2.376-0.328,4.48-1.72,5.728-3.768l20.056-33C385.008,224.384,383.808,219.464,380.032,217.168z"/>
	</g>
</g>
<g>
	<g>
		<path d="M424,40c-4.424,0-8,3.576-8,8v19.2c0,4.424,3.576,8,8,8s8-3.576,8-8V48C432,43.576,428.424,40,424,40z"/>
	</g>
</g>
<g>
	<g>
		<path d="M424,116.8c-4.424,0-8,3.576-8,8V144c0,4.424,3.576,8,8,8s8-3.576,8-8v-19.2C432,120.376,428.424,116.8,424,116.8z"/>
	</g>
</g>
<g>
	<g>
		<path d="M472,88h-19.2c-4.424,0-8,3.576-8,8s3.576,8,8,8H472c4.424,0,8-3.576,8-8S476.424,88,472,88z"/>
	</g>
</g>
<g>
	<g>
		<path d="M395.2,88H376c-4.424,0-8,3.576-8,8s3.576,8,8,8h19.2c4.424,0,8-3.576,8-8S399.624,88,395.2,88z"/>
	</g>
</g>
<g>
	<g>
		<path d="M463.592,124.28l-13.568-13.568c-3.128-3.128-8.184-3.128-11.312,0c-3.128,3.128-3.128,8.184,0,11.312l13.568,13.568
			c1.56,1.56,3.608,2.344,5.656,2.344c2.048,0,4.096-0.784,5.656-2.344C466.72,132.464,466.72,127.408,463.592,124.28z"/>
	</g>
</g>
<g>
	<g>
		<path d="M409.288,69.976L395.72,56.408c-3.128-3.128-8.184-3.128-11.312,0c-3.128,3.128-3.128,8.184,0,11.312l13.568,13.568
			c1.56,1.56,3.608,2.344,5.656,2.344c2.048,0,4.096-0.784,5.656-2.344C412.416,78.168,412.416,73.104,409.288,69.976z"/>
	</g>
</g>
<g>
	<g>
		<path d="M409.288,110.712c-3.128-3.128-8.184-3.128-11.312,0l-13.568,13.568c-3.128,3.128-3.128,8.184,0,11.312
			c1.56,1.56,3.608,2.344,5.656,2.344c2.048,0,4.096-0.784,5.656-2.344l13.568-13.568
			C412.416,118.896,412.416,113.84,409.288,110.712z"/>
	</g>
</g>
<g>
	<g>
		<path d="M463.592,56.408c-3.128-3.128-8.184-3.128-11.312,0l-13.568,13.568c-3.128,3.128-3.128,8.184,0,11.312
			c1.56,1.56,3.608,2.344,5.656,2.344c2.048,0,4.096-0.784,5.656-2.344l13.568-13.568C466.72,64.592,466.72,59.536,463.592,56.408z"
			/>
	</g>
</g>
<g>
	<g>
		<circle cx="132" cy="284" r="12"/>
	</g>
</g>
<g>
	<g>
		<circle cx="200" cy="88" r="8"/>
	</g>
</g>
<g>
	<g>
		<circle cx="288" cy="88" r="8"/>
	</g>
</g>
<g>
</g>
<g>
</g>
<g>
</g>
<g>
</g>
<g>
</g>
<g>
</g>
<g>
</g>
<g>
</g>
<g>
</g>
<g>
</g>
<g>
</g>
<g>
</g>
<g>
</g>
<g>
</g>
<g>
</g>
</svg>
